<svg xmlns="http://www.w3.org/2000/svg" width="200" height="56" fill="none"><path fill="#274C5B" d="M70.394 27.361v1.28c0 2.054-.278 3.897-.834 5.53-.557 1.633-1.343 3.024-2.357 4.175a10.215 10.215 0 0 1-3.637 2.616c-1.397.606-2.95.91-4.657.91-1.694 0-3.247-.304-4.657-.91a10.438 10.438 0 0 1-3.637-2.616c-1.026-1.15-1.824-2.542-2.393-4.175-.557-1.633-.835-3.476-.835-5.53v-1.28c0-2.065.278-3.909.835-5.529.556-1.633 1.342-3.024 2.356-4.175a10.334 10.334 0 0 1 3.637-2.634c1.41-.607 2.962-.91 4.657-.91 1.707 0 3.26.303 4.657.91a10.115 10.115 0 0 1 3.637 2.634c1.027 1.15 1.818 2.542 2.375 4.175.569 1.62.853 3.464.853 5.53Zm-5.622 1.28v-1.317c0-1.435-.13-2.696-.39-3.785-.259-1.088-.642-2.004-1.15-2.746-.507-.742-1.125-1.299-1.855-1.67-.73-.383-1.565-.575-2.505-.575s-1.775.192-2.505.575c-.717.371-1.33.928-1.837 1.67-.495.742-.872 1.658-1.132 2.746-.26 1.089-.39 2.35-.39 3.785v1.318c0 1.422.13 2.684.39 3.785.26 1.088.644 2.01 1.15 2.764.508.743 1.127 1.305 1.856 1.689.73.383 1.565.575 2.505.575s1.775-.192 2.505-.575c.73-.384 1.342-.946 1.837-1.689.495-.754.872-1.676 1.132-2.764.26-1.101.39-2.363.39-3.785Zm14.64-2.838V41.5h-5.344V21.424h5.029l.315 4.379Zm6.049-4.509-.093 4.954c-.26-.037-.575-.068-.946-.093a9.624 9.624 0 0 0-.983-.055c-.755 0-1.41.099-1.967.296a3.508 3.508 0 0 0-1.373.835c-.36.372-.631.823-.817 1.355a6.653 6.653 0 0 0-.297 1.818l-1.076-.334c0-1.299.13-2.492.39-3.58.26-1.102.637-2.06 1.132-2.877.507-.816 1.125-1.447 1.855-1.892.73-.446 1.565-.668 2.505-.668.297 0 .6.024.91.074.308.037.562.093.76.167Zm14.862.13h4.843v19.408c0 1.83-.408 3.383-1.225 4.657-.804 1.287-1.929 2.258-3.377 2.913-1.447.668-3.13 1.002-5.046 1.002-.842 0-1.732-.111-2.672-.334a10.688 10.688 0 0 1-2.672-1.039 7.06 7.06 0 0 1-2.115-1.781l2.356-3.154a6.658 6.658 0 0 0 2.152 1.67c.817.408 1.72.612 2.71.612.964 0 1.78-.18 2.449-.538a3.561 3.561 0 0 0 1.54-1.54c.358-.668.538-1.478.538-2.43V26.062l.519-4.64Zm-13.508 10.28v-.39c0-1.534.186-2.926.557-4.175.383-1.262.922-2.344 1.614-3.247a7.34 7.34 0 0 1 2.56-2.097c1.003-.495 2.135-.742 3.396-.742 1.336 0 2.456.247 3.359.742s1.645 1.2 2.226 2.115c.582.903 1.033 1.973 1.355 3.21a29.36 29.36 0 0 1 .779 4.026V32a23.723 23.723 0 0 1-.835 3.897c-.371 1.2-.86 2.25-1.466 3.154a6.48 6.48 0 0 1-2.263 2.078c-.89.495-1.955.742-3.192.742s-2.356-.254-3.358-.76a7.502 7.502 0 0 1-2.542-2.134c-.705-.916-1.25-1.992-1.633-3.229-.371-1.237-.557-2.585-.557-4.045Zm5.344-.39v.39c0 .828.08 1.601.241 2.319.161.717.409 1.354.743 1.91.346.545.773.972 1.28 1.28.52.298 1.132.446 1.837.446.977 0 1.775-.204 2.393-.612.619-.42 1.083-.996 1.392-1.726.309-.73.489-1.57.538-2.523v-2.43c-.025-.78-.13-1.479-.315-2.098-.186-.63-.446-1.168-.78-1.614a3.367 3.367 0 0 0-1.299-1.039c-.531-.247-1.162-.37-1.892-.37-.705 0-1.317.16-1.837.482-.507.309-.934.736-1.28 1.28-.334.544-.588 1.187-.761 1.93a10.28 10.28 0 0 0-.26 2.375Zm27.999 5.659v-8.944c0-.643-.105-1.193-.315-1.651a2.35 2.35 0 0 0-.984-1.095c-.433-.26-.995-.39-1.688-.39-.594 0-1.107.106-1.54.316a2.229 2.229 0 0 0-1.002.872c-.235.371-.353.81-.353 1.317h-5.343c0-.853.198-1.663.593-2.43.396-.767.971-1.441 1.726-2.023.755-.593 1.651-1.057 2.69-1.391 1.052-.334 2.227-.501 3.526-.501 1.558 0 2.944.26 4.156.779 1.212.52 2.165 1.299 2.857 2.338.706 1.039 1.058 2.338 1.058 3.896v8.591c0 1.101.068 2.004.204 2.71.136.692.334 1.298.594 1.818v.315h-5.399c-.26-.544-.458-1.225-.594-2.041a16.781 16.781 0 0 1-.186-2.486Zm.705-7.7.037 3.024h-2.987c-.705 0-1.317.08-1.837.241-.519.16-.946.39-1.28.687a2.654 2.654 0 0 0-.742 1.002 3.455 3.455 0 0 0-.223 1.261c0 .458.105.872.315 1.243.211.36.514.644.91.854.395.198.859.297 1.391.297.804 0 1.503-.161 2.097-.483.594-.321 1.051-.717 1.373-1.187.334-.47.507-.915.52-1.336l1.41 2.264a9.134 9.134 0 0 1-.817 1.577 7.352 7.352 0 0 1-1.28 1.54c-.52.47-1.144.86-1.874 1.169-.73.297-1.596.445-2.598.445-1.274 0-2.43-.254-3.469-.76-1.027-.52-1.844-1.231-2.45-2.134-.593-.916-.89-1.955-.89-3.118 0-1.051.198-1.985.593-2.801a5.47 5.47 0 0 1 1.745-2.06c.779-.569 1.75-.996 2.913-1.28 1.162-.297 2.511-.445 4.045-.445h3.098Zm14.028-3.563V41.5h-5.344V21.424h5.01l.334 4.286Zm-.78 5.047h-1.447c0-1.485.192-2.82.575-4.008.384-1.2.922-2.22 1.615-3.061a6.93 6.93 0 0 1 2.467-1.949c.965-.457 2.041-.686 3.229-.686.94 0 1.8.136 2.579.408a4.939 4.939 0 0 1 2.004 1.299c.569.593 1.002 1.379 1.299 2.356.309.977.464 2.171.464 3.581V41.5h-5.381V28.679c0-.89-.124-1.584-.371-2.078-.248-.495-.613-.841-1.095-1.04-.47-.21-1.052-.315-1.744-.315-.718 0-1.342.142-1.874.427-.52.284-.953.68-1.299 1.187a5.6 5.6 0 0 0-.761 1.745 8.561 8.561 0 0 0-.26 2.152Zm22.489-9.333V41.5h-5.363V21.424h5.363Zm-5.697-5.233c0-.779.272-1.422.817-1.93.544-.506 1.274-.76 2.189-.76.903 0 1.627.254 2.171.76.557.508.835 1.151.835 1.93 0 .78-.278 1.423-.835 1.93-.544.507-1.268.76-2.171.76-.915 0-1.645-.253-2.189-.76-.545-.507-.817-1.15-.817-1.93Zm18.407 21.505c.655 0 1.237-.123 1.744-.37.507-.26.903-.62 1.187-1.077.297-.47.452-1.02.464-1.651h5.028c-.012 1.41-.389 2.665-1.131 3.766-.743 1.089-1.738 1.949-2.988 2.58-1.249.618-2.647.927-4.193.927-1.559 0-2.919-.26-4.082-.78-1.151-.519-2.109-1.236-2.876-2.151-.767-.928-1.342-2.004-1.726-3.229-.383-1.237-.575-2.56-.575-3.97v-.539c0-1.422.192-2.746.575-3.97.384-1.238.959-2.314 1.726-3.23a7.873 7.873 0 0 1 2.876-2.17c1.15-.52 2.499-.78 4.045-.78 1.645 0 3.086.316 4.323.947a7.052 7.052 0 0 1 2.932 2.709c.717 1.163 1.082 2.542 1.094 4.138h-5.028a4.182 4.182 0 0 0-.427-1.819 3.072 3.072 0 0 0-1.15-1.299c-.495-.334-1.107-.5-1.837-.5-.779 0-1.416.166-1.911.5a3.205 3.205 0 0 0-1.151 1.336 6.68 6.68 0 0 0-.575 1.912 16.017 16.017 0 0 0-.148 2.226v.538c0 .78.049 1.528.148 2.245.099.718.285 1.355.557 1.912.284.556.674.995 1.169 1.317.495.322 1.138.482 1.93.482Zm16.866-24.714V41.5h-5.344V12.982h5.344Zm12.654 8.442-8.721 9.945-4.675 4.732-1.949-3.86 3.711-4.713 5.214-6.104h6.42ZM193.282 41.5l-5.937-9.277 3.692-3.229 8.405 12.506h-6.16Z"/><path stroke="#7EB693" stroke-miterlimit="10" stroke-width="2" d="M1.85 42.068h34.881M5.791 48.5h27M18.791 1.5v14M18.866 14.784v26.432M29.925 4.553l-11.06 11.084M34.18 8.816 18.865 24.163M36.731 15.637 18.866 32.689M37.582 23.31 18.866 42.07M37.582 31.837 27.373 42.069M1 31.837l10.209 10.232M8.657 4.553l10.209 11.084M4.403 8.816l14.463 15.347M1.85 14.784 18.866 32.69M1 22.458l17.866 18.758M19.291 54.858C9.191 54.858 1 46.406 1 35.978V20.022C1 9.596 9.19 1.143 19.291 1.143c10.103 0 18.291 8.453 18.291 18.88v15.954c.002 10.429-8.188 18.88-18.291 18.88Z"/></svg>