<svg xmlns="http://www.w3.org/2000/svg" width="18" height="20" fill="none"><path fill="#EFD372" d="M12.316 1.454C11.474.517 10.298 0 9 0 7.695 0 6.515.513 5.677 1.446c-.847.942-1.26 2.223-1.163 3.606C4.706 7.78 6.718 10 9 10c2.281 0 4.29-2.22 4.486-4.947.098-1.37-.318-2.649-1.17-3.599ZM16.616 20H1.384c-.2.003-.397-.04-.578-.127a1.348 1.348 0 0 1-.47-.37c-.28-.347-.394-.82-.31-1.3.365-2.09 1.505-3.845 3.296-5.078C4.915 12.03 6.93 11.428 9 11.428c2.07 0 4.085.603 5.677 1.697 1.791 1.232 2.93 2.988 3.296 5.078.084.479-.03.953-.31 1.3a1.347 1.347 0 0 1-.47.37c-.181.086-.378.13-.578.127Z"/></svg>