<svg xmlns="http://www.w3.org/2000/svg" width="124" height="27" fill="none"><path fill="#FFA858" d="M13.926 2.782c.308-.904 1.586-.904 1.894 0l1.968 5.782a1 1 0 0 0 .947.678H25c.98 0 1.375 1.263.57 1.822l-4.989 3.46a1 1 0 0 0-.376 1.143l1.924 5.653c.31.914-.724 1.694-1.517 1.144l-5.17-3.585a1 1 0 0 0-1.14 0l-5.17 3.585c-.793.55-1.828-.23-1.517-1.143l1.924-5.654a1 1 0 0 0-.376-1.143l-4.99-3.46c-.805-.559-.41-1.822.57-1.822h6.268a1 1 0 0 0 .946-.678l1.968-5.782ZM37.486 2.928c.299-.922 1.602-.922 1.902 0l1.827 5.623a1 1 0 0 0 .95.69h5.913c.969 0 1.372 1.24.588 1.81l-4.783 3.475a1 1 0 0 0-.364 1.118l1.828 5.624c.299.921-.756 1.687-1.54 1.118l-4.783-3.476a1 1 0 0 0-1.175 0l-4.783 3.476c-.784.57-1.839-.197-1.54-1.118l1.828-5.624a1 1 0 0 0-.364-1.118l-4.783-3.475c-.784-.57-.38-1.81.588-1.81h5.912a1 1 0 0 0 .951-.69l1.828-5.623ZM61.053 2.782c.308-.904 1.586-.904 1.894 0l1.968 5.782a1 1 0 0 0 .947.678h6.266c.98 0 1.376 1.263.57 1.822l-4.988 3.46a1 1 0 0 0-.377 1.143l1.924 5.653c.31.914-.724 1.694-1.517 1.144l-5.17-3.585a1 1 0 0 0-1.14 0l-5.17 3.585c-.793.55-1.828-.23-1.517-1.143l1.924-5.654a1 1 0 0 0-.377-1.143l-4.988-3.46c-.806-.559-.41-1.822.57-1.822h6.266a1 1 0 0 0 .947-.678l1.968-5.782ZM84.612 2.928c.3-.922 1.603-.922 1.903 0l1.827 5.623a1 1 0 0 0 .95.69h5.913c.969 0 1.372 1.24.588 1.81l-4.783 3.475a1 1 0 0 0-.364 1.118l1.828 5.624c.299.921-.756 1.687-1.54 1.118l-4.783-3.476a1 1 0 0 0-1.175 0l-4.784 3.476c-.783.57-1.838-.197-1.538-1.118l1.827-5.624a1 1 0 0 0-.363-1.118l-4.784-3.475c-.784-.57-.38-1.81.588-1.81h5.912a1 1 0 0 0 .951-.69l1.828-5.623ZM108.18 2.782c.308-.904 1.586-.904 1.894 0l1.968 5.782a1 1 0 0 0 .946.678h6.267c.98 0 1.375 1.263.57 1.822l-4.989 3.46a1 1 0 0 0-.376 1.143l1.924 5.653c.311.914-.724 1.694-1.517 1.144l-5.17-3.585a1 1 0 0 0-1.14 0l-5.17 3.585c-.793.55-1.828-.23-1.517-1.143l1.924-5.654a1 1 0 0 0-.377-1.143l-4.988-3.46c-.806-.559-.41-1.822.57-1.822h6.266a1 1 0 0 0 .947-.678l1.968-5.782Z"/></svg>