<svg xmlns="http://www.w3.org/2000/svg" width="27" height="24" fill="none"><path fill="#fff" stroke="#fff" stroke-linecap="round" stroke-linejoin="round" stroke-width="1.5" d="M11.569 23a1.222 1.222 0 1 0 0-2.444 1.222 1.222 0 0 0 0 2.444ZM20.125 23a1.222 1.222 0 1 0 0-2.444 1.222 1.222 0 0 0 0 2.444Z"/><path stroke="#fff" stroke-linecap="round" stroke-linejoin="round" stroke-width="2" d="M1.791 1h3.782l2.836 16.073h15.128"/><path stroke="#fff" stroke-linecap="round" stroke-linejoin="round" stroke-width="2" d="m7.902 13.184 15.247.107a.473.473 0 0 0 .464-.38l1.702-8.51a.471.471 0 0 0-.464-.565H6.358"/></svg>