<svg xmlns="http://www.w3.org/2000/svg" width="20" height="20" fill="none"><path fill="#274C5B" d="M13.659 2.263A4.109 4.109 0 0 1 16.495 3.4a3.81 3.81 0 0 1 1.18 2.732v7.736a3.81 3.81 0 0 1-1.18 2.733 4.109 4.109 0 0 1-2.837 1.136H5.623a4.109 4.109 0 0 1-2.837-1.136 3.81 3.81 0 0 1-1.18-2.732V6.131A3.81 3.81 0 0 1 2.787 3.4a4.11 4.11 0 0 1 2.837-1.137h8.035Zm0-1.547H5.623C2.531.716 0 3.153 0 6.132v7.736c0 2.98 2.53 5.417 5.624 5.417h8.035c3.093 0 5.624-2.438 5.624-5.417V6.132c0-2.979-2.531-5.416-5.625-5.416Z"/><path fill="#274C5B" d="M14.864 6.133c-.239 0-.472-.068-.67-.196a1.17 1.17 0 0 1-.444-.52 1.12 1.12 0 0 1-.068-.671c.046-.225.161-.432.33-.595a1.22 1.22 0 0 1 .617-.317c.234-.045.476-.022.696.066.22.088.408.236.54.427a1.13 1.13 0 0 1-.148 1.466 1.243 1.243 0 0 1-.853.34Zm-5.222.773c.635 0 1.257.182 1.785.522.529.34.94.823 1.184 1.389.243.565.307 1.187.183 1.788-.124.6-.43 1.152-.88 1.584a3.254 3.254 0 0 1-1.646.847 3.33 3.33 0 0 1-1.856-.176 3.192 3.192 0 0 1-1.443-1.14A3.014 3.014 0 0 1 6.428 10c0-.82.34-1.606.942-2.187a3.281 3.281 0 0 1 2.272-.907Zm0-1.547c-.954 0-1.886.272-2.679.782a4.685 4.685 0 0 0-1.775 2.083 4.483 4.483 0 0 0-.275 2.683c.186.9.646 1.727 1.32 2.376a4.88 4.88 0 0 0 2.468 1.27c.935.18 1.904.088 2.785-.263a4.786 4.786 0 0 0 2.164-1.71 4.52 4.52 0 0 0 .812-2.58 4.557 4.557 0 0 0-1.412-3.282 4.917 4.917 0 0 0-3.408-1.36Z"/></svg>