<svg xmlns="http://www.w3.org/2000/svg" width="20" height="21" fill="none"><path fill="#274C5B" d="M9.797.716C4.387.716 0 5.1 0 10.508c0 4.009 2.414 7.454 5.865 8.97-.026-.681-.005-1.503.17-2.247l1.26-5.337s-.315-.625-.315-1.548c0-1.451.84-2.535 1.89-2.535.892 0 1.32.669 1.32 1.469 0 .896-.573 2.234-.866 3.475-.245 1.04.52 1.884 1.549 1.884 1.854 0 3.105-2.382 3.105-5.206 0-2.147-1.448-3.751-4.076-3.751-2.97 0-4.824 2.216-4.824 4.69 0 .853.253 1.456.647 1.92.18.214.205.301.14.546-.048.18-.153.612-.201.787-.066.25-.267.337-.49.245-1.37-.56-2.008-2.055-2.008-3.742 0-2.78 2.349-6.116 7.002-6.116 3.74 0 6.202 2.706 6.202 5.609 0 3.842-2.139 6.71-5.288 6.71-1.058 0-2.05-.573-2.392-1.22 0 0-.568 2.256-.69 2.693-.206.757-.613 1.508-.985 2.099a9.85 9.85 0 0 0 2.777.402c5.41 0 9.797-4.385 9.797-9.793 0-5.407-4.382-9.796-9.792-9.796Z"/></svg>