<svg xmlns="http://www.w3.org/2000/svg" width="21" height="18" fill="none"><path fill="#274C5B" d="M20.66 2.674a8.686 8.686 0 0 1-2.434.659 4.197 4.197 0 0 0 1.865-2.307 8.511 8.511 0 0 1-2.693 1.011A4.266 4.266 0 0 0 14.303.716c-2.342 0-4.238 1.868-4.238 4.17-.001.32.035.64.11.952a12.082 12.082 0 0 1-8.738-4.36 4.119 4.119 0 0 0-.576 2.096 4.16 4.16 0 0 0 1.894 3.473 4.197 4.197 0 0 1-1.928-.52v.051c0 2.023 1.464 3.706 3.4 4.09-.364.096-.739.145-1.116.146a4.06 4.06 0 0 1-.797-.078c.539 1.657 2.106 2.862 3.962 2.897A8.59 8.59 0 0 1 0 15.359a11.996 11.996 0 0 0 6.488 1.885c7.806 0 12.07-6.357 12.07-11.871 0-.18-.004-.362-.012-.538a8.543 8.543 0 0 0 2.114-2.16Z"/></svg>